<?xml version="1.0" encoding="UTF-8" standalone="no"?>
<svg
   width="91.836998"
   height="53.039001"
   viewBox="-0.358 -0.104 91.836998 53.039001"
   overflow="visible"
   enable-background="new -0.358 -0.104 116 127"
   xml:space="preserve"
   version="1.1"
   id="svg33"
   sodipodi:docname="logo-PHP.svg"
   inkscape:version="1.3 (0e150ed6c4, 2023-07-21)"
   xmlns:inkscape="http://www.inkscape.org/namespaces/inkscape"
   xmlns:sodipodi="http://sodipodi.sourceforge.net/DTD/sodipodi-0.dtd"
   xmlns="http://www.w3.org/2000/svg"
   xmlns:svg="http://www.w3.org/2000/svg"
   xmlns:a="http://ns.adobe.com/AdobeSVGViewerExtensions/3.0/"><defs
   id="defs33" /><sodipodi:namedview
   id="namedview33"
   pagecolor="#ffffff"
   bordercolor="#000000"
   borderopacity="0.25"
   inkscape:showpageshadow="2"
   inkscape:pageopacity="0.0"
   inkscape:pagecheckerboard="0"
   inkscape:deskcolor="#d1d1d1"
   inkscape:zoom="6.4173228"
   inkscape:cx="47.527608"
   inkscape:cy="26.257055"
   inkscape:window-width="1920"
   inkscape:window-height="1012"
   inkscape:window-x="0"
   inkscape:window-y="0"
   inkscape:window-maximized="1"
   inkscape:current-layer="svg33" />&#10;	<g
   id="Layer_1_2_"
   transform="translate(-10.45,-37.265)">&#10;		&#10;		<g
   id="g33">&#10;			<path
   d="m 101.929,65.434 c 0,13.678 -20.558,24.766 -45.917,24.766 -25.359,0 -45.92,-11.089 -45.92,-24.766 0,-13.679 20.56,-24.767 45.919,-24.767 25.359,0 45.918,11.088 45.918,24.767 z"
   style="opacity:0.15"
   id="path21" />&#10;			<linearGradient
   id="XMLID_8_"
   gradientUnits="userSpaceOnUse"
   x1="56.0103"
   y1="28.0166"
   x2="56.0103"
   y2="91.706398">&#10;				<stop
   offset="0"
   style="stop-color:rgb(179,184,255)"
   id="stop21" />&#10;				<stop
   offset="1"
   style="stop-color:rgb(58,58,169)"
   id="stop22" />&#10;			</linearGradient>&#10;			<path
   d="m 101.929,61.927 c 0,13.68 -20.558,24.767 -45.917,24.767 -25.359,0 -45.92,-11.088 -45.92,-24.767 0,-13.678 20.56,-24.766 45.919,-24.766 25.359,0 45.918,11.088 45.918,24.766 z"
   style="fill:url(#XMLID_8_)"
   id="path22" />&#10;			<g
   id="g30">&#10;				<path
   d="m 66.371,50.511 c -1.119,-1.35 -2.854,-2.12 -4.757,-2.12 -1.325,0 -2.637,0.387 -3.832,1.044 0.525,-3.194 1.438,-8.738 1.438,-8.738 H 53.218 L 48.56,69.055 h 6.002 l 1.918,-11.684 0.277,-1 c 0.628,-1.231 1.885,-2.412 3.35,-2.412 0.941,0 1.217,0.335 1.307,0.443 0.417,0.502 0.526,1.589 0.295,2.987 L 59.792,69.06 h 6.005 l 1.892,-11.539 c 0.496,-3.006 0.051,-5.367 -1.318,-7.01 z"
   id="path23" />&#10;				<path
   d="M 53.218,40.188 H 52.795 L 47.97,69.564 h 7.016 l 1.988,-12.109 0.265,-0.945 c 0.506,-0.968 1.615,-2.042 2.869,-2.042 0.322,0 0.745,0.045 0.925,0.262 0.246,0.296 0.423,1.127 0.184,2.575 l -2.015,12.263 h 7.019 l 1.961,-11.964 c 0.136,-0.824 0.204,-1.603 0.204,-2.335 0,-2.078 -0.546,-3.783 -1.633,-5.087 -1.213,-1.461 -3.086,-2.3 -5.139,-2.3 -1.055,0 -2.137,0.299 -3.192,0.749 0.236,-1.435 1.389,-8.442 1.389,-8.442 H 59.22 53.218 Z m 5.411,1.018 c -0.169,1.03 -1.509,9.171 -1.509,9.171 l 0.9,-0.495 c 1.169,-0.644 2.412,-0.983 3.594,-0.983 1.758,0 3.353,0.707 4.375,1.939 v 10e-4 c 0.93,1.115 1.396,2.601 1.396,4.434 0,0.675 -0.063,1.396 -0.189,2.163 0,0 -1.692,10.325 -1.822,11.114 -0.654,0 -4.105,0 -4.991,0 0.176,-1.068 1.821,-11.077 1.821,-11.077 0.084,-0.508 0.126,-0.979 0.126,-1.403 0,-0.884 -0.181,-1.573 -0.532,-1.996 -0.13,-0.156 -0.52,-0.624 -1.689,-0.624 -1.789,0 -3.162,1.447 -3.794,2.687 L 56,57.233 c 0,0 -1.73,10.523 -1.86,11.313 -0.654,0 -4.103,0 -4.988,0 0.184,-1.119 4.358,-26.534 4.491,-27.341 0.653,0.001 4.102,0.001 4.986,0.001 z m 8.124,8.976 z"
   style="fill:#ffffff"
   id="path24" />&#10;				<path
   d="M 89.672,51.47 C 88.31,49.832 85.684,48.722 83.278,48.722 l -5.34,0.065 h -4.065 l -0.96,6.889 -3.365,20.467 h 6.009 c 0,0 0.816,-4.981 1.271,-7.755 1.062,0.67 2.351,1.064 3.824,1.068 4.272,0 9.406,-3.299 10.594,-10.539 0.631,-3.834 -0.506,-6.168 -1.574,-7.447 z M 81.06,61.926 h -0.931 l -2.334,-0.051 1.415,-7.153 h 1.85 c 0.166,0 0.33,0.01 0.489,0.027 1.993,0.216 3.538,1.732 3.538,3.573 0,1.991 -1.803,3.604 -4.027,3.604 z"
   id="path25" />&#10;				<path
   d="m 77.933,48.279 h -4.494 l -1.021,7.327 -3.461,21.047 h 7.023 c 0,0 1.06,-6.467 1.236,-7.542 1.043,0.523 2.177,0.853 3.435,0.855 4.475,0 9.853,-3.431 11.088,-10.963 0.131,-0.795 0.188,-1.528 0.188,-2.205 0,-2.759 -0.963,-4.565 -1.874,-5.657 -1.457,-1.751 -4.18,-2.928 -6.775,-2.928 z m 0.005,1.018 5.346,-0.065 c 2.276,0 4.749,1.056 6.006,2.567 l 10e-4,10e-4 c 0.998,1.195 2.063,3.386 1.462,7.036 -1.14,6.949 -6.035,10.114 -10.101,10.114 -1.325,-0.004 -2.523,-0.337 -3.561,-0.991 l -0.634,-0.4 c 0,0 -1.2,7.319 -1.325,8.078 -0.654,0 -4.109,0 -4.994,0 0.184,-1.117 3.268,-19.875 3.268,-19.875 0,0 0.794,-5.697 0.901,-6.464 0.693,-0.001 3.631,-0.001 3.631,-0.001 z m 12.116,1.845 v 0 c -0.001,-0.001 -0.001,0 0,0 z"
   style="fill:#ffffff"
   id="path26" />&#10;				<path
   d="m 79.21,54.213 h -0.409 l -1.614,8.158 2.932,0.063 h 0.941 c 2.496,0 4.527,-1.846 4.527,-4.112 0,-2.08 -1.713,-3.833 -3.985,-4.079 L 81.06,54.212 h -1.85 z m 1.85,1.017 0.436,0.025 c 1.763,0.191 3.092,1.509 3.092,3.067 0,1.707 -1.582,3.095 -3.527,3.095 H 80.13 c 0,0 -1.066,-0.023 -1.726,-0.038 0.186,-0.939 1.085,-5.487 1.216,-6.149 0.496,0 1.44,0 1.44,0 z"
   style="fill:#ffffff"
   id="path27" />&#10;				<path
   d="M 44.152,51.47 C 42.791,49.832 40.165,48.722 37.76,48.722 l -5.34,0.065 h -4.066 l -0.959,6.889 -3.365,20.467 h 6.007 c 0,0 0.819,-4.981 1.274,-7.755 1.062,0.67 2.349,1.064 3.825,1.068 4.272,0 9.406,-3.299 10.593,-10.539 0.629,-3.834 -0.508,-6.168 -1.577,-7.447 z m -8.611,10.456 h -0.93 l -2.334,-0.051 1.415,-7.153 h 1.849 c 0.167,0 0.33,0.01 0.49,0.027 1.99,0.216 3.536,1.732 3.536,3.573 0,1.991 -1.802,3.604 -4.026,3.604 z"
   id="path28" />&#10;				<path
   d="m 32.414,48.279 h -4.495 l -1.021,7.327 -3.461,21.047 h 7.021 c 0,0 1.063,-6.467 1.239,-7.542 1.044,0.523 2.178,0.853 3.435,0.855 4.475,0 9.853,-3.431 11.088,-10.963 0.131,-0.794 0.188,-1.528 0.188,-2.205 0,-2.759 -0.963,-4.565 -1.875,-5.657 C 43.1,49.417 40.315,48.213 37.76,48.213 Z m 0.005,1.018 5.346,-0.065 c 2.277,0 4.749,1.056 6.004,2.567 L 43.77,51.8 c 0.999,1.195 2.063,3.386 1.463,7.036 -1.14,6.949 -6.035,10.114 -10.1,10.114 -1.325,-0.004 -2.523,-0.337 -3.562,-0.991 L 30.938,67.56 c 0,0 -1.203,7.318 -1.327,8.077 -0.654,0 -4.108,0 -4.993,0 0.184,-1.117 3.268,-19.875 3.268,-19.875 0,0 0.793,-5.697 0.9,-6.464 0.694,-0.001 3.633,-0.001 3.633,-0.001 z m 12.114,1.845 z"
   style="fill:#ffffff"
   id="path29" />&#10;				<path
   d="m 33.691,54.213 h -0.409 l -1.614,8.158 2.931,0.063 h 0.941 c 2.496,0 4.526,-1.846 4.526,-4.112 0,-2.079 -1.712,-3.833 -3.983,-4.079 L 35.54,54.212 h -1.849 z m 1.85,1.017 0.437,0.025 c 1.761,0.191 3.089,1.509 3.089,3.067 0,1.707 -1.582,3.095 -3.526,3.095 h -0.93 c 0,0 -1.066,-0.023 -1.726,-0.038 0.186,-0.939 1.085,-5.487 1.216,-6.149 0.496,0 1.44,0 1.44,0 z"
   style="fill:#ffffff"
   id="path30" />&#10;			</g>&#10;			<linearGradient
   id="XMLID_9_"
   gradientUnits="userSpaceOnUse"
   x1="87.009804"
   y1="158.60201"
   x2="59.535301"
   y2="72.576401">&#10;				<stop
   offset="59.1954%"
   style="stop-opacity:1;stop-color:rgb(255,255,255)"
   id="stop30" />&#10;				<stop
   offset="100%"
   style="stop-opacity:0;stop-color:rgb(255,255,255)"
   id="stop31" />&#10;			</linearGradient>&#10;			<path
   a:adobe-blending-mode="screen"
   d="m 51.333,79.579 c -14.328,0 -26.967,-3.889 -34.502,-9.813 6.105,8.377 21.223,14.311 38.921,14.311 23.096,0 41.82,-10.099 41.82,-22.554 0,-4.731 -2.703,-9.118 -7.315,-12.744 1.862,2.555 2.896,5.334 2.896,8.247 0,12.455 -18.723,22.553 -41.82,22.553 z"
   style="fill:url(#XMLID_9_)"
   id="path31" />&#10;			<linearGradient
   id="XMLID_10_"
   gradientUnits="userSpaceOnUse"
   x1="54.763199"
   y1="26.476601"
   x2="54.763199"
   y2="76.715599">&#10;				<stop
   offset="0%"
   style="stop-color:rgb(255,255,255)"
   id="stop32" />&#10;				<stop
   offset="71.2644%"
   style="stop-opacity:0;stop-color:rgb(255,255,255)"
   id="stop33" />&#10;			</linearGradient>&#10;			<path
   a:adobe-blending-mode="screen"
   d="M 94.113,53.164 C 90.418,45.095 74.384,39.022 55.165,39.022 c -21.954,0 -39.751,7.923 -39.751,17.695 0,8.787 14.394,16.074 33.258,17.456 18.314,-1.653 34.444,-9.494 45.441,-21.009 z"
   style="fill:url(#XMLID_10_)"
   id="path33" />&#10;		</g>&#10;	</g>&#10;</svg>
